<?xml version="1.0" encoding="utf-8"?>
<!DOCTYPE svg PUBLIC "-//W3C//DTD SVG 1.1//EN" "http://www.w3.org/Graphics/SVG/1.1/DTD/svg11.dtd">
<svg version="1.1" xmlns="http://www.w3.org/2000/svg" xmlns:xlink="http://www.w3.org/1999/xlink" x="0" y="0"
	 width="16" height="16" viewBox="0 0 16 16" enable-background="new 0 0 16 16" xml:space="preserve">
<g transform="translate(0,16) scale(0.016,-0.016)">
	<path d="M612.002,798.999c-65-12.998-160-58.999-187.002-91.001c-47.002-55.996-32.998-105,72.998-247.002
		c35-45.996,61.006-85,59.004-86.992C555,372.002,515,362.998,467.002,355c-99.004-17.002-182.002-47.002-215-77.998
		c-17.002-16.006-22.002-30-20-56.006C236.001,175,268.999,152.002,350,139.004C462.998,120.996,580,150,615.996,205.996
		c20,29.004,25,94.004,11.006,132.002c-7.998,20-5,22.002,25,24.004c30.996,0.996,30,0.996-7.998,7.002
		c-38.008,5-48.008,13.994-109.004,90.996c-71.001,90-105,147.998-105,177.002c0,88.999,169.004,165,315.996,143.999
		C844.004,767.002,870,745,870,676.001c0-43.999,15.996-47.002,25-6.001c9.004,42.998-20.996,101.001-65,122.002
		C792.002,811.001,690,815,612.002,798.999z M590,330.996C609.004,294.004,602.002,250,570.996,220
		C495,144.004,250,140.996,250,217.002c0,13.994,85,70.996,135,90.996c31.001,12.002,147.998,39.004,177.002,41.006
		C572.002,350,584.004,340.996,590,330.996z"/>
	<path d="M155,696.001c-87.998-38.999-122.002-155-73.999-253.999c36.997-76.006,135-102.998,206.001-57.002
		C316.001,404.004,350,457.998,350,485c0,12.002-7.998,2.998-22.002-25c-55-105.996-160-112.998-231.997-15.996
		C67.998,481.001,67.998,572.002,95,618.999c31.001,52.002,67.002,73.999,120,73.003c53.999,0,92.998-23.003,107.998-63.003
		c6.001-16.001,15-28.999,19.004-28.999c12.998,0,8.999,12.998-12.002,47.998C296.001,702.998,218.999,723.999,155,696.001z"/>
</g>
</svg>
